<svg xmlns="http://www.w3.org/2000/svg" width="17" height="17" fill="none" viewBox="0 0 17 17"><path fill="#4C4C4C" d="M5.1 13.6C4.165 13.6 3.4085 14.365 3.4085 15.3C3.4085 16.235 4.165 17 5.1 17C6.035 17 6.8 16.235 6.8 15.3C6.8 14.365 6.035 13.6 5.1 13.6ZM0 0V1.7H1.7L4.76 8.1515L3.6125 10.234C3.4765 10.472 3.4 10.7525 3.4 11.05C3.4 11.985 4.165 12.75 5.1 12.75H15.3V11.05H5.457C5.338 11.05 5.2445 10.9565 5.2445 10.8375L5.27 10.7355L6.035 9.35H12.3675C13.005 9.35 13.566 9.0015 13.855 8.4745L16.898 2.958C16.966 2.839 17 2.6945 17 2.55C17 2.0825 16.6175 1.7 16.15 1.7H3.5785L2.7795 0H0ZM13.6 13.6C12.665 13.6 11.9085 14.365 11.9085 15.3C11.9085 16.235 12.665 17 13.6 17C14.535 17 15.3 16.235 15.3 15.3C15.3 14.365 14.535 13.6 13.6 13.6Z"/></svg>